<?xml version="1.0" encoding="UTF-8"?>
<svg width="24" height="24" version="1.1" viewBox="0 -960 960 960" xmlns="http://www.w3.org/2000/svg" xmlns:cc="http://creativecommons.org/ns#" xmlns:dc="http://purl.org/dc/elements/1.1/" xmlns:rdf="http://www.w3.org/1999/02/22-rdf-syntax-ns#">
 <title>warning</title>
 <path d="m115.22-110.39q-14.957 0-26.832-7.365-11.876-7.365-18.473-19.418-6.696-11.826-7.196-25.772t7.196-27.228l363.78-629.83q7.696-13.391 20.363-19.805 12.666-6.413 26-6.413 13.333 0 25.942 6.413 12.609 6.414 20.305 19.805l363.78 629.83q7.696 13.282 7.196 27.228t-7.196 25.772-18.522 19.305q-11.826 7.478-26.783 7.478h-729.56zm364.78-131.3q17.565 0 30.196-12.63 12.63-12.631 12.63-30.196t-12.63-29.913q-12.631-12.348-30.196-12.348t-30.196 12.348q-12.63 12.348-12.63 29.913t12.63 30.196q12.631 12.63 30.196 12.63zm0-118.3q17 0 28.5-11.5t11.5-28.5v-113.78q0-17-11.5-28.5t-28.5-11.5q-17 0-28.5 11.5t-11.5 28.5v113.78q0 17 11.5 28.5t28.5 11.5z" fill="#f81c78"/>
 <metadata>
  <rdf:RDF>
   <cc:Work rdf:about="">
    <dc:title>warning</dc:title>
   </cc:Work>
  </rdf:RDF>
 </metadata>
</svg>
