<svg version="1.1" viewBox="0 0 32 32" xmlns="http://www.w3.org/2000/svg"><title>iNaturalist</title><path d="m3.6321 7.6154c6.6976 0.682 11.963 3.1242 15.794 7.3262 0.1495 0.164 0.5648 0.6278 0.8822 0.513 0.3174-0.1149 0.7047-0.8337 0.8742-1.084 0.266-0.3931 1.0879-1.7875 2.8766-2.3618 1.7889-0.5743 4.0555 0.0648 4.1379 0.093 0.1547 0.0532 0.3108 0.1229 0.2217 0.2474s-0.8465 0.4241-1.361 1.4027c-0.5504 1.047-0.874 3.0725-0.9533 3.5189-0.3127 1.8384-1.0624 3.543-2.1467 4.9916-1.9076 2.5488-4.8511 4.3054-8.272 4.6047-1.8702 0.1636-3.6755-0.1265-5.3072-0.7791 1.9773-0.193 4.3704-1.1267 6.2928-3.3621 2.4256-2.8205-0.2289-1.3561-2.5082-1.7294-1.5969-0.2615-2.8968-1.0778-5.0783-3.8385 0.69981-0.1946 2.0794-0.432 3.1922-0.4793-2.0583-0.4702-4.7889-1.7651-5.9971-3.7601 0.97092-0.335 2.2486-0.2134 3.2693-0.1693-3.8879-2.3273-5.5647-3.5811-5.9173-5.1341zm9.2907-2.5269c0.2297 0.11141 3.6937 1.6074 5.3665 3.8478 2.3371 3.1299 2.4236 6.145 1.7889 5.4558-1.4917-1.6194-2.8629-2.6564-4.5587-3.8191-1.2983-0.8901-2.166-3.4272-2.5967-5.4845zm12.033 7.6255c-0.329 0.0288-0.5723 0.3187-0.5435 0.6477 0.0288 0.3289 0.3188 0.5722 0.6477 0.5435 0.3289-0.0288 0.5722-0.3188 0.5435-0.6477-0.0288-0.329-0.3188-0.5723-0.6477-0.5435z" fill-rule="evenodd" stroke-width=".074738"/></svg>
