<svg width="32" height="32" fill="none" version="1.1" viewBox="0 0 32 32" xmlns="http://www.w3.org/2000/svg" xmlns:cc="http://creativecommons.org/ns#" xmlns:dc="http://purl.org/dc/elements/1.1/" xmlns:rdf="http://www.w3.org/1999/02/22-rdf-syntax-ns#"><title>tilde.town</title><path d="m8 0c-4.4183 0-8 3.5817-8 8v16c0 4.4183 3.5817 8 8 8h16c4.4183 0 8-3.5817 8-8v-16c0-4.4183-3.5817-8-8-8h-16zm0.49146 15.068c-0.41663 0.8409-0.60981 1.9167-0.57953 3.2272h2.875c-0.0151-0.9772 0.1667-1.6742 0.5455-2.0908 0.3864-0.4243 0.8712-0.6364 1.4545-0.6364 0.4016 0 0.7614 0.0985 1.0796 0.2954 0.3181 0.1894 0.7424 0.5152 1.2727 0.9773 0.8182 0.7121 1.5493 1.2348 2.1932 1.5682 0.6439 0.3258 1.3484 0.4886 2.1136 0.4886 0.8485 0 1.6288-0.2007 2.3409-0.6023 0.7198-0.4014 1.2879-1.0227 1.7046-1.8636 0.4242-0.8409 0.6212-1.9204 0.5909-3.2386h-2.875c0.0151 0.9015-0.1629 1.5833-0.5341 2.0454-0.3637 0.4546-0.8523 0.6818-1.4659 0.6818-0.4016 0-0.7651-0.0984-1.0909-0.2954-0.3258-0.2046-0.7463-0.5303-1.2614-0.9773-0.8257-0.7273-1.5606-1.25-2.2045-1.5681-0.6439-0.3258-1.3448-0.4887-2.1023-0.4887-0.856 0-1.6402 0.2045-2.3523 0.6137-0.71211 0.4014-1.2803 1.0227-1.7045 1.8636z" clip-rule="evenodd" fill="#C200FB" fill-rule="evenodd"/></svg>